<?xml version="1.0" encoding="UTF-8"?>
<svg width="12px" height="12px" viewBox="0 0 12 12" version="1.1" xmlns="http://www.w3.org/2000/svg" xmlns:xlink="http://www.w3.org/1999/xlink">
    <!-- Generator: Sketch 47.1 (45422) - http://www.bohemiancoding.com/sketch -->
    <title>chalkboard</title>
    <desc>Created with Sketch.</desc>
    <defs></defs>
    <g id="Page-1" stroke="none" stroke-width="1" fill="none" fill-rule="evenodd">
        <g id="chalkboard" fill-rule="nonzero">
            <path d="M6.37340625,1.3933125 C6.37340625,1.45052344 6.28945313,1.49692969 6.18590625,1.49692969 L5.81407031,1.49692969 C5.71052344,1.49692969 5.62657031,1.45054687 5.62657031,1.3933125 L5.62657031,0.123984375 C5.62657031,0.0667734375 5.71052344,0.0203671875 5.81407031,0.0203671875 L6.18590625,0.0203671875 C6.28945313,0.0203671875 6.37340625,0.06675 6.37340625,0.123984375 L6.37340625,1.3933125 Z" id="Shape" fill="#D1D5D5"></path>
            <path d="M6.37340625,11.5750547 C6.37340625,11.6786016 6.28945313,11.7625547 6.18590625,11.7625547 L5.81407031,11.7625547 C5.71052344,11.7625547 5.62657031,11.6786016 5.62657031,11.5750547 L5.62657031,9.27817969 C5.62657031,9.17463281 5.71052344,9.09067969 5.81407031,9.09067969 L6.18590625,9.09067969 C6.28945313,9.09067969 6.37340625,9.17463281 6.37340625,9.27817969 L6.37340625,11.5750547 Z" id="Shape" fill="#D1D5D5"></path>
            <path d="M3.66984375,11.8395937 C3.64129687,11.9432812 3.58000781,11.9727422 3.46364062,11.9796328 L3.04811719,11.9796328 C2.94827344,11.9521406 2.89047656,11.8458047 2.91902344,11.7421172 L3.55230469,9.44221875 C3.580875,9.33853125 3.68496094,9.27675 3.78478125,9.30424219 L4.14328125,9.40296094 C4.243125,9.43045312 4.30094531,9.53678906 4.272375,9.6405 L3.66984375,11.8395937 Z" id="Shape" fill="#D1D5D5"></path>
            <path d="M8.33015625,11.8395937 C8.35870313,11.9432812 8.41999219,11.9727422 8.53635938,11.9796328 L8.95188281,11.9796328 C9.05172656,11.9521406 9.10952344,11.8458047 9.08097656,11.7421172 L8.44769531,9.44221875 C8.419125,9.33853125 8.31503906,9.27675 8.21521875,9.30424219 L7.85671875,9.40296094 C7.756875,9.43045312 7.69905469,9.53678906 7.727625,9.6405 L8.33015625,11.8395937 Z" id="Shape" fill="#D1D5D5"></path>
            <path d="M12,9.04380469 C12,9.39330469 11.7166875,9.67661719 11.3671875,9.67661719 L0.6328125,9.67661719 C0.2833125,9.67661719 0,9.39330469 0,9.04380469 L0,1.28599219 C0,0.936492188 0.2833125,0.653179688 0.6328125,0.653179688 L11.3671875,0.653179688 C11.7166875,0.653179688 12,0.936492188 12,1.28599219 L12,9.04380469 Z" id="Shape" fill="#48B19B"></path>
            <g id="Group" transform="translate(0.492188, 1.125000)">
                <path d="M0.0630234375,8.07874219 C0.036796875,8.07874219 0.01546875,8.05708594 0.01546875,8.03050781 L0.01546875,0.049265625 C0.01546875,0.0226875 0.036796875,0.00103125 0.0630234375,0.00103125 L10.9525781,0.00103125 C10.9788047,0.00103125 11.0001328,0.0226875 11.0001328,0.049265625 L11.0001328,8.03050781 C11.0001328,8.05708594 10.9788047,8.07874219 10.9525781,8.07874219 L0.0630234375,8.07874219 Z" id="Shape" fill="#253744"></path>
                <path d="M0.28003125,7.86370312 C0.254859375,7.86370312 0.234375,7.84321875 0.234375,7.81804687 L0.234375,0.261726563 C0.234375,0.236554688 0.254859375,0.216070313 0.28003125,0.216070313 L10.7355937,0.216070313 C10.7607656,0.216070313 10.78125,0.236554688 10.78125,0.261726563 L10.78125,7.81804687 C10.78125,7.84321875 10.7607656,7.86370312 10.7355937,7.86370312 L0.28003125,7.86370312 Z" id="Shape" fill="#2D404E"></path>
            </g>
            <g id="Group" transform="translate(1.898438, 3.210938)" fill="#D1D5D5">
                <path d="M0.481195312,0.935015625 C0.495117187,0.88040625 0.556171875,0.922921875 0.54871875,0.862101563 C0.600820312,0.879210938 0.631664062,0.866601563 0.663796875,0.889125 C0.6714375,0.879351563 0.65990625,0.857273437 0.700453125,0.852304688 C0.701882812,0.863882813 0.726140625,0.869742188 0.727195312,0.878414063 C0.848226562,0.834210938 1.003875,0.976851563 1.10374219,0.9999375 C1.347375,1.30828125 1.03122656,1.63225781 0.973382812,1.90401562 C0.8536875,1.98339844 0.863742187,2.1615 0.740835937,2.23832813 C0.742289062,2.37049219 0.5293125,2.55246094 0.495609375,2.70949219 C0.551320312,2.73208594 0.760148437,2.61236719 0.809578125,2.53579688 C0.84328125,2.52283594 0.85875,2.55328125 0.854015625,2.56265625 C1.02639844,2.55335156 1.02110156,2.48629687 1.14665625,2.52682031 C1.29822656,2.44357031 1.47276562,2.42807813 1.603875,2.562 C1.58029687,2.56192969 1.55594531,2.60315625 1.58519531,2.62600781 C1.66380469,2.61935156 1.56421875,2.76682031 1.48380469,2.78257031 C1.40882812,2.79471094 1.32789844,2.73403125 1.30129687,2.80490625 C1.21483594,2.77136719 0.97134375,2.84826563 0.809742187,2.89746094 C0.605390625,2.95774219 0.419625,3.1216875 0.211125,3.10014844 C0.159890625,3.0181875 0.0911484375,3.00895313 0.0516328125,2.87854688 C0.110179687,2.78022656 0.11484375,2.65024219 0.210515625,2.61501563 C0.19715625,2.6019375 0.182132812,2.5273125 0.240726562,2.54955469 C0.2415,2.5318125 0.2263125,2.52775781 0.226710937,2.50715625 C0.321421875,2.41614844 0.328710937,2.25942188 0.449085937,2.18585156 C0.49134375,1.9306875 0.728367187,1.82521875 0.75440625,1.55735156 C0.80371875,1.52777344 0.83821875,1.47358594 0.829570312,1.45110938 C0.848789062,1.43992969 0.86765625,1.42584375 0.890507812,1.420125 C0.868265625,1.334625 0.944835937,1.26349219 0.882351562,1.20942188 C0.88125,1.20072656 0.908132812,1.17975 0.916453125,1.17578906 C0.886875,1.12647656 0.788414062,1.11501563 0.70921875,1.09235156 C0.686601562,1.1480625 0.641460937,1.09185938 0.60590625,1.13739844 C0.588140625,1.136625 0.569367187,1.12713281 0.567960937,1.11555469 C0.485695312,1.14032813 0.350484375,1.21277344 0.321960937,1.31622656 C0.298992187,1.3925625 0.234304687,1.48870313 0.178171875,1.48673438 C0.160453125,1.48598438 0.145898437,1.51129688 0.14878125,1.51094531 C0.115828125,1.50611719 0.11775,1.4735625 0.107625,1.46301563 C0.0693515625,1.41478125 -0.0087421875,1.37728125 0.002296875,1.29946875 C0.0699140625,1.203 0.0581484375,1.13090625 0.162515625,1.09460156 C0.185671875,1.09176563 0.163664062,1.0561875 0.167320312,1.03811719 C0.214054687,1.03532813 0.322734375,1.01027344 0.326578125,0.9215625 C0.355546875,0.918 0.348914062,0.960023438 0.375328125,0.959695313 C0.380601562,0.882609375 0.423164062,0.942070313 0.445359375,0.907007813 C0.453,0.920859375 0.453351562,0.923765625 0.481195312,0.935015625 Z" id="Shape"></path>
                <path d="M2.55815625,1.70992969 C2.57519531,1.84900781 2.59441406,1.83782812 2.51339063,1.94479688 C2.73801563,2.17014844 2.94227344,2.30097656 3.16436719,2.52965625 C3.14866406,2.56982813 3.10961719,2.70691406 3.03724219,2.69226563 C2.8273125,2.65917188 2.58255469,2.22154688 2.37051563,2.19459375 C2.25876563,2.26708594 2.20516406,2.42950781 2.15526563,2.55032813 C2.10569531,2.67400781 2.06828906,2.8726875 1.95848438,2.91260156 C1.97264063,2.9079375 1.87919531,2.91351563 1.90633594,2.91897656 C1.819125,2.90320313 1.82690625,2.8228125 1.77925781,2.76986719 C1.85878125,2.67485156 1.76997656,2.574 1.867875,2.50905469 C1.8755625,2.47575 1.84694531,2.48219531 1.84957031,2.45542969 C1.88545313,2.43635156 1.90542188,2.40740625 1.9344375,2.38035937 C1.930125,2.36910937 1.90734375,2.37482812 1.89246094,2.37370312 C1.98180469,2.26277344 1.97179688,2.08464844 2.10229688,1.99807031 C1.98264844,1.78924219 1.71210938,1.66945312 1.60401563,1.45919531 C1.55479688,1.44171094 1.50897656,1.37964844 1.55041406,1.33342969 C1.81340625,1.2718125 1.86979688,1.44428906 1.92569531,1.54038281 C2.04241406,1.629 2.14605469,1.731 2.26823438,1.81600781 C2.27554688,1.77984375 2.29811719,1.72413281 2.29492969,1.69804687 C2.48875781,1.67139844 2.30723438,1.41424219 2.47204688,1.39113281 C2.44530469,1.36497656 2.50052344,1.1435625 2.58067969,1.10139844 C2.67044531,1.11391406 2.82532031,1.13022656 2.81463281,1.21094531 C2.65204688,1.37200781 2.7324375,1.50035156 2.55815625,1.70992969 Z" id="Shape"></path>
                <path d="M3.77017969,1.59379687 C3.66192188,1.59820312 3.66625781,1.60947656 3.57028125,1.61826562 C3.56029688,1.56067969 3.52450781,1.53276562 3.48330469,1.50836719 C3.51442969,1.49866406 3.46174219,1.42867969 3.45607031,1.38234375 C3.576,1.35290625 3.62334375,1.25889844 3.68472656,1.16022656 C3.838125,1.06792969 3.99464063,0.881132812 3.99761719,0.713132812 C3.88783594,0.585421875 3.67971094,0.71090625 3.55476562,0.723257812 C3.46596094,0.766476562 3.47772656,0.838570312 3.35491406,0.8683125 C3.37980469,0.903515625 3.36705469,0.943289062 3.35646094,0.976921875 C3.23015625,0.954164062 3.11873438,0.909023437 3.11046094,0.7453125 C3.22005469,0.655453125 3.31755469,0.611132812 3.40971094,0.52340625 C3.56027344,0.552023437 3.69447656,0.447351562 3.78970312,0.45628125 C3.82842187,0.460382812 3.89685938,0.44315625 3.93595313,0.450140625 C4.11039844,0.481734375 4.33563281,0.61584375 4.18354688,0.910921875 C4.1655,1.02782812 4.02222656,1.130625 3.97270313,1.25432812 C4.05419531,1.24729687 4.25444531,1.2256875 4.35379688,1.31646094 C4.43939063,1.39122656 4.59567188,1.44269531 4.5534375,1.55371875 C4.62625781,1.66832812 4.5751875,1.82749219 4.58172656,1.97667187 C4.56721875,1.97845312 4.55564063,1.97988281 4.5440625,1.98128906 C4.52903906,2.33894531 4.05649219,2.80265625 3.60907031,2.63104687 C3.567375,2.50671094 3.30447656,2.52126562 3.33834375,2.29364062 C3.40169531,2.28292969 3.31999219,2.24003906 3.36246094,2.20244531 C3.41076562,2.14066406 3.36855469,2.22820312 3.44646094,2.19217969 C3.44603906,2.21285156 3.46380469,2.21357812 3.46340625,2.23422656 C3.50322656,2.22346875 3.49178906,2.1778125 3.52146094,2.18003906 C3.54096094,2.19532031 3.52425,2.22675 3.56294531,2.25440625 C3.59411719,2.24470312 3.5908125,2.24214844 3.63,2.22557812 C3.6530625,2.26982812 3.63850781,2.29514062 3.6069375,2.32546875 C3.61082812,2.35732031 3.63834375,2.36575781 3.649875,2.38783594 C3.84890625,2.42817187 3.95667188,2.32382812 4.07010938,2.28932812 C4.15324219,2.19975 4.19257031,2.11260937 4.24026563,1.99792969 C4.3003125,2.00821875 4.30938281,1.86595312 4.32869531,1.8076875 C4.32869531,1.8076875 4.351125,1.82261719 4.35332813,1.81647656 C4.40601563,1.74236719 4.26063281,1.66019531 4.31289844,1.60673437 C4.280625,1.46364844 3.92275781,1.39867969 3.77017969,1.59379687 Z" id="Shape"></path>
                <path d="M4.82688281,1.19383594 C4.80930469,1.12246875 4.82500781,1.08232031 4.824375,1.02944531 C5.01154687,1.04475 5.14514062,0.91078125 5.31698437,0.945585938 C5.38811719,0.878085938 5.47385156,0.9058125 5.55890625,0.927726563 C5.68429687,0.871195313 5.82588281,0.874453125 5.96882812,0.889265625 C6.00264844,0.829242188 6.10321875,0.858117188 6.16113281,0.874523438 C6.17271094,0.87309375 6.16478906,0.856453125 6.16589062,0.841617188 C6.20613281,0.833742188 6.19839844,0.890578125 6.24623437,0.872976563 C6.25521094,0.898289063 6.21747656,0.926484375 6.22682812,0.954726563 C6.24775781,0.9815625 6.28666406,0.915046875 6.297375,0.978445313 C6.28282031,1.00373438 6.24588281,1.01414063 6.24714844,1.07278125 C5.85480469,1.18260938 5.60228906,1.09003125 5.29073437,1.16346094 C5.2906875,1.18699219 5.23598437,1.19664844 5.25049219,1.19486719 C5.14228125,1.17578906 5.00228906,1.25765625 4.82688281,1.19383594 Z M6.41784375,1.313625 C6.10005469,1.40842969 5.66252344,1.46200781 5.3593125,1.55503125 C5.35753125,1.54057031 5.29202344,1.53389063 5.29024219,1.51938281 C5.22890625,1.57099219 5.07084375,1.52864063 5.03367187,1.60964063 C5.06036719,1.65930469 4.84174219,1.62726563 4.94477344,1.84401563 C5.067,1.90553906 5.14645312,1.83403125 5.19639844,1.83379688 C5.27041406,1.90996875 5.31555469,1.822125 5.43292969,1.79599219 C5.74809375,1.728 6.20041406,1.67554688 6.48742969,1.56982031 C6.53613281,1.48736719 6.46577344,1.39305469 6.41784375,1.313625 Z" id="Shape"></path>
                <path d="M7.293,0.96825 C7.34146875,0.97996875 7.40491406,0.945726562 7.41700781,0.900140625 C7.53616406,0.8649375 7.63610156,0.864492187 7.71546094,0.840046875 C7.73610938,0.840492187 7.74726563,0.8596875 7.76280469,0.866625 C7.77082031,0.85978125 7.76866406,0.842390625 7.79224219,0.8424375 C7.81966406,0.874382812 7.87542188,0.873421875 7.90865625,0.904640625 C7.91917969,0.894515625 7.91702344,0.877125 7.93767188,0.877570312 C8.00414063,0.940007812 8.07569531,0.995929687 8.12655469,1.07500781 C8.18221875,1.40929687 8.07642188,1.7221875 7.84886719,1.92949219 C7.85102344,1.94683594 7.85313281,1.96422656 7.85526563,1.98159375 C7.74499219,2.06571094 7.6404375,2.19614062 7.50864844,2.20054687 C7.54371094,2.19916406 7.47065625,2.17870312 7.444875,2.20832812 C7.16760938,2.17760156 7.00729688,1.99727344 6.85935938,1.79775 C6.85504688,1.78652344 6.83803125,1.7915625 6.82645313,1.79299219 C6.63890625,1.48657031 6.62383594,1.14726562 6.66124219,0.804492187 C6.73966406,0.724335937 6.71805469,0.54759375 6.7966875,0.493851562 C6.76396875,0.418453125 6.87515625,0.390117187 6.86128125,0.300679687 C6.91964063,0.272929687 6.94582031,0.222679687 6.96550781,0.16734375 C6.994125,0.160898437 7.00647656,0.141726562 7.03802344,0.134929687 C7.21246875,-0.14521875 7.65110156,0.0745546875 7.68520313,0.3526875 C7.69057031,0.372632812 7.72680469,0.3564375 7.722375,0.39225 C7.667625,0.4254375 7.7325,0.402773437 7.71710156,0.469382812 C7.67838281,0.46528125 7.63992188,0.487640625 7.59250781,0.484617187 C7.58746875,0.467578125 7.59874219,0.463242187 7.5973125,0.451664062 C7.44098438,0.423796875 7.50991406,0.218296875 7.36155469,0.1835625 C7.27122656,0.238734375 7.17377344,0.28303125 7.15790625,0.393773437 C7.04226563,0.457898437 7.04657813,0.613265625 6.97645313,0.713015625 C6.98332031,0.720984375 6.98725781,0.729328125 7.00214063,0.730453125 C6.85619531,0.883570312 6.95078906,1.15136719 6.90592969,1.28920312 C6.92104688,1.31676562 6.94886719,1.3280625 6.95857031,1.35921094 C6.99820312,1.29848437 7.004625,1.20653906 7.10240625,1.18867969 C7.09989844,1.16840625 7.0850625,1.16730469 7.08546094,1.14665625 C7.11091406,1.11410156 7.18434375,1.13749219 7.15692187,1.10554687 C7.16782031,1.09835156 7.24342969,1.092 7.20234375,1.04411719 C7.27279688,1.06774219 7.26789844,1.0036875 7.293,0.96825 Z M7.427625,1.7075625 C7.42680469,1.7488125 7.41921094,1.75858594 7.44846094,1.7814375 C7.36296094,1.80365625 7.38117188,1.90436719 7.27614844,1.91135156 C7.28936719,1.995 7.34622656,1.97922656 7.39947656,1.9815 C7.42954688,1.96314844 7.41042187,1.95077344 7.44375,1.93495313 C7.47159375,1.94625 7.44513281,1.9700625 7.4885625,1.96474219 C7.52798438,1.97465625 7.49990625,1.91336719 7.52636719,1.91308594 C7.52742188,1.92178125 7.549125,1.93089844 7.56070312,1.92946875 C7.67491406,1.85371875 7.76939062,1.71271875 7.78835156,1.53103125 C7.82634375,1.52932031 7.81884375,1.49198438 7.84675781,1.47975 C7.87532813,1.35271875 7.97667188,1.0756875 7.77890625,1.09399219 C7.77932813,1.07339063 7.76191406,1.0755 7.75185938,1.065 C7.4233125,1.11991406 7.19810156,1.41803906 7.16784375,1.65114844 C7.2185625,1.77724219 7.32370313,1.72321875 7.427625,1.7075625 Z" id="Shape"></path>
            </g>
            <g id="Group" transform="translate(3.164062, 9.656250)" fill="#2D404E" opacity="0.2">
                <polygon id="Shape" points="0.323671875 0.0203671875 0.0141796875 1.14440625 1.01542969 0.323179687 1.09839844 0.0203671875"></polygon>
                <polygon id="Shape" points="5.34817969 0.0203671875 5.65767188 1.14440625 4.65644531 0.323179687 4.57347656 0.0203671875"></polygon>
            </g>
            <polygon id="Shape" fill="#253744" opacity="0.7" points="8.56296094 6.57951562 9.16134375 7.7938125 9.7614375 7.56726563"></polygon>
            <g id="Group" transform="translate(8.554688, 6.328125)">
                <path d="M1.18657031,1.33094531 C1.1596875,1.35897656 1.11515625,1.35989063 1.08714844,1.33303125 L0.0281953125,0.317460938 C0.000140625,0.290601563 -0.0007734375,0.246070313 0.0260859375,0.2180625 L0.199125,0.0376171875 C0.226007813,0.009609375 0.270515625,0.0086953125 0.298546875,0.0355546875 L1.3575,1.051125 C1.38553125,1.07798438 1.38644531,1.12251563 1.35958594,1.15052344 L1.18657031,1.33094531 Z" id="Shape" fill="#D1D5D5"></path>
                <path d="M1.18657031,1.33094531 L1.20675,1.30989844 L0.0739453125,0.291070313 C0.212929688,0.1606875 0.259148438,0.0731015625 0.2720625,0.0198046875 C0.247101563,0.0115078125 0.218554688,0.0173671875 0.199125,0.0376171875 L0.0260859375,0.2180625 C-0.0007734375,0.246070313 0.000140625,0.290601563 0.0281953125,0.317460937 L1.08714844,1.33303125 C1.11515625,1.35989063 1.15966406,1.35897656 1.18657031,1.33094531 Z" id="Shape" fill="#C6CBCB"></path>
            </g>
        </g>
    </g>
</svg>