<?xml version="1.0" encoding="UTF-8"?>
<svg width="10px" height="12px" viewBox="0 0 10 12" version="1.1" xmlns="http://www.w3.org/2000/svg" xmlns:xlink="http://www.w3.org/1999/xlink">
    <!-- Generator: Sketch 47.1 (45422) - http://www.bohemiancoding.com/sketch -->
    <title>man-reading</title>
    <desc>Created with Sketch.</desc>
    <defs></defs>
    <g id="Page-1" stroke="none" stroke-width="1" fill="none" fill-rule="evenodd">
        <g id="man-reading" fill-rule="nonzero" fill="#000000">
            <path d="M1.63481481,3.9962963 L2.42962963,4.13296296 C2.36925926,3.9362963 2.32925926,3.73 2.31259259,3.51703704 L3.05148148,3.62333333 L3.05148148,4.07481481 L4.99,4.07481481 L4.99,3.75555556 L5.33222222,3.75555556 L5.33222222,4.07481481 L7.27037037,4.07481481 L7.27037037,3.63481481 L7.88740741,3.53925926 C7.88074074,3.68888889 7.86185185,3.84740741 7.83259259,4.00740741 L8.44666667,3.89185185 C8.31555556,2.23888889 7.68259259,0 5.0537037,0 C4.68037037,0 4.24518519,0.0459259259 4.0562963,0.131111111 C3.86666667,0.215925926 3.83259259,0.40962963 3.71037037,0.450740741 C3.58296296,0.493703704 3.40222222,0.476296296 3.29,0.530740741 C1.53888889,1.37407407 1.6,3.43 1.6,3.43 L1.63481481,3.9962963 Z M4.77481481,3.85925926 L3.26666667,3.85925926 L3.26666667,3.09148148 L4.77481481,3.09148148 L4.77481481,3.85925926 Z M7.05481481,3.85925926 L5.54740741,3.85925926 L5.54740741,3.09148148 L7.05481481,3.09148148 L7.05481481,3.85925926 Z M2.32259259,3.02444444 C3.10185185,2.97148148 3.98185185,2.35777778 4.05037037,1.50296296 C5.03666667,2.31962963 6.43444444,2.35962963 7.59888889,2.4637037 C7.74444444,2.53185185 7.85037037,2.82481481 7.88037037,3.21296296 L7.27037037,3.30740741 L7.27037037,2.8762963 L5.33185185,2.8762963 L5.33185185,3.32481481 L4.98962963,3.32481481 L4.98962963,2.8762963 L3.05111111,2.8762963 L3.05111111,3.29666667 L2.30222222,3.18888889 C2.30925926,3.13444444 2.3162963,3.08 2.32259259,3.02444444 Z" id="Shape"></path>
            <path d="M9.70962963,7.90666667 C9.70962963,7.50333333 9.54740741,7.15148148 9.30592593,6.95037037 L9.30592593,4.07111111 L4.91259259,4.77111111 L0.517777778,4.07111111 L0.517777778,6.87444444 C0.217407407,7.05259259 0.00777777778,7.44666667 0.00777777778,7.90666667 C0.00777777778,8.3662963 0.217407407,8.76037037 0.517777778,8.93851852 L0.517777778,11.2392593 L4.91259259,11.9396296 L9.30592593,11.24 L9.30592593,8.86296296 C9.54777778,8.66111111 9.70962963,8.30962963 9.70962963,7.90666667 Z M4.71296296,11.5040741 L0.916666667,10.8992593 L0.916666667,9.03518519 C1.37407407,9.00555556 1.73925926,8.5137037 1.73925926,7.90666667 C1.73925926,7.29925926 1.37444444,6.80740741 0.916666667,6.77740741 L0.916666667,4.53814815 L4.71296296,5.14333333 L4.71296296,11.5040741 Z M8.90740741,10.8992593 L5.11148148,11.5040741 L5.11148148,5.14333333 L8.90740741,4.53814815 L8.90740741,5.34037037 L8.90740741,6.78037037 C8.88555556,6.77814815 8.86592593,6.77259259 8.8437037,6.77259259 C8.36555556,6.77259259 7.97777778,7.28074074 7.97777778,7.90666667 C7.97777778,8.53296296 8.36555556,9.04111111 8.8437037,9.04111111 C8.86592593,9.04111111 8.88555556,9.03481481 8.90740741,9.03296296 L8.90740741,10.8992593 L8.90740741,10.8992593 Z" id="Shape"></path>
        </g>
    </g>
</svg>